<svg xmlns="http://www.w3.org/2000/svg" viewBox="20 10 1117 317" fill="currentColor" role="img" aria-label="GONZAGA">
  <title>GONZAGA</title>
  <desc>Gonzaga Jewellery — lettering 2 (tracado da imagem original, agosto 2026). Contorno fechado, cor via currentColor. Grelha: altura de maiuscula 200 u, linha de base y=270. Fonte: projeto Omelette / svg/lettering2. Palavra completa, com as irregularidades do original: os dois G sao instancias distintas.</desc>
<g transform="translate(3.0,8)">
    <path d="M 147.3 85.0 L 99.5 2.7 L 17.3 146.1 L 104.5 309.5 L 178.1 159.0 L 164.7 152.4 L 103.9 276.5 L 34.5 146.3 L 99.7 32.4 L 136.1 91.6 Z" fill="currentColor"></path>
    <path d="M 90.9 163.2 L 171.4 163.2 L 171.4 148.2 L 90.9 148.2 Z" fill="currentColor"></path>
  </g>
  <g transform="translate(178.8,8)">
    <path d="M 29.8 162.6 L 99.4 280.3 L 167.4 165.6 L 98.3 48.1 Z M 98.1 77.5 L 150.0 165.6 L 99.4 250.9 L 47.2 162.6 Z" fill="currentColor" fill-rule="evenodd"></path>
  </g>
  <g transform="translate(289.1,8)">
    <path d="M 91.7 67.8 L 90.7 270.0 L 105.7 270.0 L 106.7 67.8 Z" fill="currentColor"></path>
    <path d="M 93.6 72.8 L 169.7 158.6 L 175.5 289.0 L 178.5 289.0 L 184.7 152.9 L 104.8 62.8 Z" fill="currentColor"></path>
  </g>
  <g transform="translate(478.1,8)">
    <path d="M 37.7 85.8 L 171.1 83.9 L 170.9 68.9 L 37.5 70.8 Z" fill="currentColor"></path>
    <path d="M 150.7 75.0 L 36.2 257.1 L 48.8 265.1 L 163.3 83.0 Z" fill="currentColor"></path>
    <path d="M 28.6 273.7 L 148.1 271.0 L 147.7 256.0 L 28.2 258.7 Z" fill="currentColor"></path>
  </g>
  <g transform="translate(630.9,8)">
    <path d="M 21.8 285.3 L 100.4 91.4 L 164.1 277.0 L 175.9 273.0 L 101.6 47.9 L 10.2 280.7 Z" fill="currentColor"></path>
    <path d="M 135.9 190.6 L 81.8 275.1 L 84.2 276.9 L 148.1 199.4 Z" fill="currentColor"></path>
  </g>
  <g transform="translate(799.3,8)">
    <path d="M 152.2 102.8 L 105.4 22.7 L 22.5 160.5 L 98.8 318.4 L 178.8 168.3 L 165.6 161.3 L 99.4 285.2 L 39.5 161.3 L 105.4 51.8 L 141.0 109.4 Z" fill="currentColor"></path>
    <path d="M 92.9 167.6 L 171.8 172.3 L 172.6 157.3 L 93.7 152.6 Z" fill="currentColor"></path>
  </g>
  <g transform="translate(960.6,8)">
    <path d="M 20.8 287.4 L 100.9 93.7 L 164.1 280.0 L 175.9 276.0 L 102.3 50.4 L 9.2 282.6 Z" fill="currentColor"></path>
    <path d="M 137.0 192.6 L 80.8 279.1 L 83.2 280.9 L 149.0 201.4 Z" fill="currentColor"></path>
  </g>
</svg>